<svg xmlns="http://www.w3.org/2000/svg" xmlns:xlink="http://www.w3.org/1999/xlink" viewBox="0 0 217 240"><defs><style>.cls-1{fill:#fff;}</style><symbol id="symbol-mixing" data-name="symbol-mixing" viewBox="0 0 217 240"><rect class="cls-1" x="162" width="37" height="77"/><rect class="cls-1" x="162" y="120" width="37" height="120"/><rect class="cls-1" x="90" width="37" height="129"/><rect class="cls-1" x="90" y="172" width="37" height="67"/><rect class="cls-1" x="18" y="120" width="37" height="119"/><rect class="cls-1" x="18" width="37" height="77"/><polygon class="cls-1" points="217 81 199 81 162 81 145 81 145 116 162 116 199 116 217 116 217 81"/><polygon class="cls-1" points="90 133 72 133 72 168 90 168 127 168 144 168 144 133 127 133 90 133"/><polygon class="cls-1" points="72 116 72 81 55 81 18 81 0 81 0 116 18 116 55 116 72 116"/></symbol></defs><title>symbol-mixing</title><g id="Layer_2" data-name="Layer 2"><g id="_1" data-name="1"><g id="Studio_Services" data-name="Studio Services"><g id="Recording"><use id="symbol-mixing-3" data-name="symbol-mixing" width="217" height="240" xlink:href="#symbol-mixing"/></g></g></g></g></svg>