<svg xmlns="http://www.w3.org/2000/svg" viewBox="0 0 34.43 34.38"><defs><style>.cls-1{fill:#fff;}</style></defs><title>icon-insta</title><g id="Layer_2" data-name="Layer 2"><g id="_1" data-name="1"><g id="Home"><g id="Icons"><path d="M16.5,33.66v0H11.13a11.75,11.75,0,0,1-4.83-.94,8.7,8.7,0,0,1-5-5.86,12.54,12.54,0,0,1-.46-3.09C.67,19.6.71,15.55.78,11.78A15.66,15.66,0,0,1,1.3,7.49a8.81,8.81,0,0,1,7-6.41A17.14,17.14,0,0,1,12,.73l5.37,0,5.14,0a16,16,0,0,1,4.29.49,8.8,8.8,0,0,1,6.58,7,21.23,21.23,0,0,1,.35,4.41q0,4.51,0,9a20,20,0,0,1-.39,4.59,8.83,8.83,0,0,1-7.15,7,19.91,19.91,0,0,1-4.19.34H16.5Z"/><path class="cls-1" d="M17.4,1.43c1.69,0,3.38,0,5.08,0a14.91,14.91,0,0,1,4.1.45,8.11,8.11,0,0,1,6.07,6.51A20.4,20.4,0,0,1,33,12.68c0,3,0,6,0,9a20,20,0,0,1-.37,4.43A8.14,8.14,0,0,1,26,32.61a20.35,20.35,0,0,1-4.2.33h-4.6V32.9H13.56l-2.42,0A11.11,11.11,0,0,1,6.59,32,8,8,0,0,1,2,26.62a12.65,12.65,0,0,1-.43-2.93c-.15-4-.11-7.93,0-11.89A14.9,14.9,0,0,1,2,7.7,8.12,8.12,0,0,1,8.41,1.77,17.07,17.07,0,0,1,12,1.44H17.4M17.4,0,12,0A17.46,17.46,0,0,0,8.09.38,9.5,9.5,0,0,0,.61,7.29a16.87,16.87,0,0,0-.55,4.48C0,15.54,0,19.61.11,23.75A13.53,13.53,0,0,0,.59,27,9.41,9.41,0,0,0,6,33.33a12.61,12.61,0,0,0,5.11,1l2.44,0h2.3l1.35.05H22A20.93,20.93,0,0,0,26.32,34,9.6,9.6,0,0,0,34,26.45a21.08,21.08,0,0,0,.4-4.75c0-2.9,0-5.94,0-9a21,21,0,0,0-.36-4.57A9.47,9.47,0,0,0,27,.53,16.8,16.8,0,0,0,22.49,0L17.4,0Z"/><path class="cls-1" d="M17.37,4.19c2.2.07,4.4.12,6.6.21a7.22,7.22,0,0,1,3.37.87A5.31,5.31,0,0,1,29.94,9a12.18,12.18,0,0,1,.25,2.82c0,3.69-.06,7.37-.11,11.06a12.23,12.23,0,0,1-.37,3.07,5.32,5.32,0,0,1-4.5,4,13.65,13.65,0,0,1-2.47.2c-3.77,0-7.53-.06-11.3-.11a10.9,10.9,0,0,1-2.95-.37,5.33,5.33,0,0,1-4-4.45,20.52,20.52,0,0,1-.23-4c0-3.24.07-6.49.13-9.73a11.79,11.79,0,0,1,.38-3.07,5.33,5.33,0,0,1,4.46-4,24.21,24.21,0,0,1,4.34-.24c1.27,0,2.54,0,3.81,0ZM9.13,17.09a8.1,8.1,0,1,0,8.18-8A8.1,8.1,0,0,0,9.13,17.09Zm16.55-6.34A1.89,1.89,0,1,0,23.84,8.8,1.9,1.9,0,0,0,25.68,10.75Z"/><path d="M9.13,17.17a8.1,8.1,0,1,1,8.06,8.12A8.09,8.09,0,0,1,9.13,17.17Zm2.82,0a5.28,5.28,0,1,0,5.3-5.27A5.27,5.27,0,0,0,12,17.18Z"/><path d="M25.62,10.66a1.89,1.89,0,1,1,1.92-1.87A1.9,1.9,0,0,1,25.62,10.66Z"/><path class="cls-1" d="M12,17.18a5.28,5.28,0,1,1,5.26,5.28A5.28,5.28,0,0,1,12,17.18Z"/></g></g></g></g></svg>