<svg xmlns="http://www.w3.org/2000/svg" viewBox="0 0 95.88 36.55"><defs><style>.cls-1{fill:#fff;}</style></defs><title>icon-rarefield</title><g id="Layer_2" data-name="Layer 2"><g id="Header"><g id="Home"><g id="Home_Button" data-name="Home Button"><path class="cls-1" d="M0,0H5.43L6.9,1.44V9L5.6,10.3l1.47,7.94H4.8L3.35,10.47h-1v7.77H0ZM4.55,8.11V2.4l-.49-.48H2.35V8.59H4.06Z"/><path class="cls-1" d="M13.62,13.54l-.47,4.7H10.8L13,0h3.38l2.27,18.24H16.23l-.46-4.7ZM14.69,2.38l-.9,9.19H15.6Z"/><path class="cls-1" d="M22.47,0H27.9l1.47,1.44V9l-1.3,1.28,1.47,7.94H27.27l-1.45-7.77h-1v7.77H22.47ZM27,8.11V2.4l-.49-.48H24.82V8.59h1.71Z"/><path class="cls-1" d="M33.56,0h5.8V2H35.91V8h3v2h-3v6.29h3.5v2H33.56Z"/><path class="cls-1" d="M49,2H45.64V8.23h3v2h-3v8H43.29V0H49Z"/><path class="cls-1" d="M52.83,0h2.35V18.24H52.83Z"/><path class="cls-1" d="M59.23,0H65V2H61.58V8h3v2h-3v6.29h3.5v2H59.23Z"/><path class="cls-1" d="M69,18.24V0h2.35V16.27h3.11v2Z"/><path class="cls-1" d="M85.18,1.44V16.8l-1.47,1.44H78.2V0h5.51ZM82.83,15.79V2.45L82.34,2H80.55v14.3h1.79Z"/><path class="cls-1" d="M.16,18.31H5.38l1.41,1.44v7.58L5.54,28.6,7,36.55H4.77L3.38,28.77h-1v7.78H.16Zm4.37,8.11V20.71l-.47-.48H2.42V26.9H4.06Z"/><path class="cls-1" d="M10.82,18.31h5.57v2H13.07v6.05H16v2h-2.9v6.29h3.37v2H10.82Z"/><path class="cls-1" d="M20.14,19.75l1.41-1.44H25l1.41,1.44v4.1H24.18V20.71l-.47-.48h-.84l-.47.48V34.1l.47.48h.84l.47-.48V31h2.26v4.13L25,36.55H21.55l-1.41-1.44Z"/><path class="cls-1" d="M37,35.11l-1.41,1.44H31.61L30.2,35.11V19.75l1.41-1.44h3.93L37,19.75Zm-4-14.84-.47.48V34.1l.47.48h1.29l.47-.48V20.75l-.47-.48Z"/><path class="cls-1" d="M40.84,18.31h5.22l1.41,1.44v7.58L46.22,28.6l1.41,7.95H45.45l-1.39-7.78h-1v7.78H40.84Zm4.37,8.11V20.71l-.47-.48H43.1V26.9h1.64Z"/><path class="cls-1" d="M58.2,19.75V35.11l-1.41,1.44H51.5V18.31h5.29ZM55.94,34.1V20.75l-.47-.48H53.76V34.58h1.71Z"/><path class="cls-1" d="M62.09,18.31h2.25V36.55H62.09Z"/><path class="cls-1" d="M68.24,18.31h2.44L73.27,31V18.31h2V36.55H72.87L70.29,24.09V36.55H68.24Z"/><path class="cls-1" d="M79.21,19.75l1.41-1.44h3.69l1.41,1.44v3.86H83.46V20.75L83,20.27h-1l-.47.48V34.1l.47.48h1l.47-.48v-5H82.34V27h3.38v8.07l-1.41,1.44H80.62l-1.41-1.44Z"/><path class="cls-1" d="M93.55,20.71l-.47-.48h-.82l-.47.48v5.13l.47.48h2.21l1.41,1.44v7.35l-1.41,1.44H90.89l-1.41-1.44V31.29h2.26v2.86l.47.48h.94l.47-.48V28.77l-.47-.48H90.94l-1.41-1.44v-7.1l1.41-1.44H94.4l1.41,1.44v3.84H93.55Z"/></g></g></g></g></svg>